<svg xmlns="http://www.w3.org/2000/svg" viewBox="0 0 500 500"><g id="freepik--background-simple--inject-62"><path d="M159.46,450.05a190.29,190.29,0,0,0,14.63,13.85H394.73c24.33-23.13,47.36-56.33,67.54-102.22,0,0,35.74-90.49,27.42-169.81s-60.42-142-134.22-155.35S216.07,96.38,133.7,121.76-9,215.16,12.68,306.4,94.9,381.94,159.46,450.05Z" style="fill:#263238"></path></g><g id="freepik--Device--inject-62"><path d="M66.26,192.47h375a10.46,10.46,0,0,1,10.46,10.46v246.5a0,0,0,0,1,0,0H55.81a0,0,0,0,1,0,0V202.92A10.46,10.46,0,0,1,66.26,192.47Z" style="fill:#fff;stroke:#263238;stroke-linecap:round;stroke-linejoin:round"></path><rect x="71.87" y="212.54" width="363.76" height="205.57" style="fill:none;stroke:#263238;stroke-linecap:round;stroke-linejoin:round"></rect><rect x="118.62" y="437.06" width="272.07" height="13.4" style="fill:#263238;stroke:#263238;stroke-linecap:round;stroke-linejoin:round"></rect><rect x="118.62" y="443.51" width="272.07" height="6.95" style="fill:#fff;stroke:#263238;stroke-linecap:round;stroke-linejoin:round"></rect><path d="M23.79,458.4s4.47,5.47,17.88,9.93h426s9.93-2.48,14.4-9.43Z" style="fill:#263238;stroke:#263238;stroke-linecap:round;stroke-linejoin:round"></path><rect x="22.89" y="448.62" width="460.11" height="10.44" rx="1.89" style="fill:#fff;stroke:#263238;stroke-linecap:round;stroke-linejoin:round"></rect><path d="M257.14,200.24a3.48,3.48,0,1,0-3.48,3.47A3.48,3.48,0,0,0,257.14,200.24Z" style="fill:#fff;stroke:#263238;stroke-linecap:round;stroke-linejoin:round"></path><line x1="10" y1="468.33" x2="497" y2="468.33" style="fill:none;stroke:#263238;stroke-linecap:round;stroke-linejoin:round"></line></g><g id="freepik--Sign--inject-62"><path d="M285.22,251.12a10.43,10.43,0,0,0,2.87-9.38l-6.55,6.54a2,2,0,0,1-2.8,0l-5.44-5.44a2,2,0,0,1,0-2.8l6.54-6.55a10.45,10.45,0,0,0-11.73,14L251.21,264l-1.63-1.63,2.66-2.66a.74.74,0,0,0,0-1l-2.06-2.05a.72.72,0,0,0-1,0l-1,1-2.23-2.22.86-.86a1,1,0,0,0,0-1.37l-18.44-18.44a4.73,4.73,0,0,0-6.69,0l-1.88,1.88a4.73,4.73,0,0,0,0,6.69l18.44,18.44a1,1,0,0,0,1.37,0l.85-.86,2.23,2.23-1,1a.72.72,0,0,0,0,1l2,2.06a.74.74,0,0,0,1,0l2.66-2.66,1.6,1.6-14,13.67a10.44,10.44,0,0,0-14,11.73l6.55-6.54a2,2,0,0,1,2.8,0l5.44,5.44a2,2,0,0,1,0,2.8l-6.54,6.55a10.45,10.45,0,0,0,11.73-14l14-13.66,19.1,19.1a3.92,3.92,0,0,0,.88,4.18l4.61,4.61,5.53-5.53-4.61-4.61a3.92,3.92,0,0,0-4.18-.88L257.16,270l16.89-16.49A10.45,10.45,0,0,0,285.22,251.12Z" style="fill:#263238;stroke:#263238;stroke-linecap:round;stroke-linejoin:round"></path><path d="M226.33,326.59c0,2,.79,3.17,2.58,3.17s2.54-1.19,2.54-3.17V309.78h2.3v16.69c0,3.33-1.54,5.56-4.94,5.56s-4.9-2.23-4.9-5.56V309.78h2.42Z" style="fill:#263238"></path><path d="M238.33,331.78h-2.2v-22h3.11l5.09,15.9v-15.9h2.17v22H244L238.33,314Z" style="fill:#263238"></path><path d="M254.17,309.78c3.42,0,5,2.08,5,5.47v11.09c0,3.36-1.57,5.44-5,5.44H249v-22Zm0,19.76c1.76,0,2.61-1.09,2.61-3.11V315.12c0-2-.85-3.11-2.64-3.11h-2.64v17.53Z" style="fill:#263238"></path><path d="M269.28,319.52v2.2H263.9v7.82h6.6v2.24h-9.05v-22h9.05V312h-6.6v7.51Z" style="fill:#263238"></path><path d="M277.66,309.78c3.46,0,4.9,1.76,4.9,5v1.79c0,2.42-.85,3.93-2.73,4.53,2,.59,2.76,2.23,2.76,4.58v3.43a5.64,5.64,0,0,0,.44,2.64h-2.48a5.83,5.83,0,0,1-.41-2.68v-3.45c0-2.48-1.16-3.27-3.2-3.27h-1.73v9.4h-2.45v-22ZM277,320.15c2,0,3.11-.63,3.11-3V315c0-2-.72-3-2.54-3h-2.39v8.14Z" style="fill:#263238"></path><path d="M195.28,360v2H193v-2.11c0-2-.79-3.17-2.58-3.17s-2.58,1.19-2.58,3.17V371.5c0,2,.82,3.17,2.58,3.17s2.58-1.19,2.58-3.17v-2.86h2.32v2.73c0,3.33-1.57,5.53-5,5.53s-4.93-2.2-4.93-5.53V360c0-3.33,1.57-5.53,4.93-5.53S195.28,356.67,195.28,360Z" style="fill:#263238"></path><path d="M197.32,360c0-3.36,1.67-5.53,5-5.53s5.06,2.17,5.06,5.53v11.37c0,3.33-1.67,5.53-5.06,5.53s-5-2.2-5-5.53Zm2.42,11.5c0,2,.85,3.17,2.61,3.17s2.61-1.16,2.61-3.17V359.87c0-2-.82-3.17-2.61-3.17s-2.61,1.19-2.61,3.17Z" style="fill:#263238"></path><path d="M211.9,376.68h-2.2v-22h3.11l5.09,15.9v-15.9h2.17v22h-2.55L211.9,358.9Z" style="fill:#263238"></path><path d="M232.1,360v.59h-2.33v-.72c0-2-.75-3.14-2.51-3.14s-2.51,1.16-2.51,3.11c0,4.93,7.38,5.4,7.38,11.59,0,3.33-1.6,5.5-5,5.5s-4.93-2.17-4.93-5.5v-1.25h2.3v1.38c0,2,.81,3.14,2.57,3.14s2.58-1.16,2.58-3.14c0-4.9-7.35-5.37-7.35-11.56,0-3.4,1.57-5.5,4.87-5.5S232.1,356.64,232.1,360Z" style="fill:#263238"></path><path d="M237.47,376.68V356.92h-4.06v-2.23H244v2.23h-4.05v19.76Z" style="fill:#263238"></path><path d="M250.57,354.69c3.45,0,4.9,1.76,4.9,5v1.8c0,2.41-.85,3.92-2.73,4.52,2,.6,2.76,2.23,2.76,4.59V374a5.47,5.47,0,0,0,.44,2.64h-2.48a5.65,5.65,0,0,1-.41-2.67v-3.46c0-2.48-1.16-3.26-3.21-3.26h-1.72v9.39h-2.45v-22Zm-.63,10.37c1.95,0,3.11-.63,3.11-3v-2.11c0-2-.72-3-2.55-3h-2.38v8.14Z" style="fill:#263238"></path><path d="M260.37,371.5c0,2,.78,3.17,2.57,3.17s2.55-1.19,2.55-3.17V354.69h2.29v16.68c0,3.33-1.54,5.56-4.93,5.56s-4.9-2.23-4.9-5.56V354.69h2.42Z" style="fill:#263238"></path><path d="M279.91,360v2h-2.33v-2.11c0-2-.78-3.17-2.57-3.17s-2.58,1.19-2.58,3.17V371.5c0,2,.82,3.17,2.58,3.17s2.57-1.19,2.57-3.17v-2.86h2.33v2.73c0,3.33-1.57,5.53-5,5.53s-4.93-2.2-4.93-5.53V360c0-3.33,1.57-5.53,4.93-5.53S279.91,356.67,279.91,360Z" style="fill:#263238"></path><path d="M285.34,376.68V356.92h-4v-2.23h10.55v2.23h-4v19.76Z" style="fill:#263238"></path><path d="M296,354.69v22h-2.45v-22Z" style="fill:#263238"></path><path d="M298.31,360c0-3.36,1.67-5.53,5-5.53s5.06,2.17,5.06,5.53v11.37c0,3.33-1.67,5.53-5.06,5.53s-5-2.2-5-5.53Zm2.42,11.5c0,2,.85,3.17,2.61,3.17s2.61-1.16,2.61-3.17V359.87c0-2-.82-3.17-2.61-3.17s-2.61,1.19-2.61,3.17Z" style="fill:#263238"></path><path d="M312.89,376.68h-2.2v-22h3.11l5.09,15.9v-15.9h2.17v22h-2.55l-5.62-17.78Z" style="fill:#263238"></path><rect x="171.72" y="337.62" width="159.52" height="9.51" style="fill:#7C3AED"></rect><polygon points="234.11 337.62 223.49 337.62 218.04 347.12 228.66 347.12 234.11 337.62" style="fill:#263238"></polygon><polygon points="331.24 347.12 331.24 338.54 326.32 347.12 331.24 347.12" style="fill:#263238"></polygon><polygon points="255.76 337.62 245.14 337.62 239.7 347.12 250.32 347.12 255.76 337.62" style="fill:#263238"></polygon><polygon points="212.45 337.62 201.83 337.62 196.38 347.12 207.01 347.12 212.45 337.62" style="fill:#263238"></polygon><polygon points="174.73 347.12 185.35 347.12 190.8 337.62 180.17 337.62 174.73 347.12" style="fill:#263238"></polygon><polygon points="320.73 337.62 310.11 337.62 304.67 347.12 315.29 347.12 320.73 337.62" style="fill:#263238"></polygon><polygon points="277.42 337.62 266.8 337.62 261.35 347.12 271.98 347.12 277.42 337.62" style="fill:#263238"></polygon><polygon points="299.08 337.62 288.45 337.62 283.01 347.12 293.63 347.12 299.08 337.62" style="fill:#263238"></polygon></g><g id="freepik--Cone--inject-62"><path d="M99.24,357.75,71.92,462.12h60.93L105.53,357.75A3.23,3.23,0,0,0,99.24,357.75Z" style="fill:#7C3AED;stroke:#263238;stroke-linecap:round;stroke-linejoin:round"></path><polygon points="71.92 462.12 121.56 462.12 96.74 367.29 71.92 462.12" style="fill:#263238;stroke:#263238;stroke-linecap:round;stroke-linejoin:round"></polygon><rect x="59" y="459.83" width="84" height="8.51" rx="4" style="fill:#7C3AED;stroke:#263238;stroke-linecap:round;stroke-linejoin:round"></rect><rect x="59" y="459.83" width="57.99" height="8.51" rx="4" style="fill:#263238;stroke:#263238;stroke-linecap:round;stroke-linejoin:round"></rect><polygon points="82.82 420.49 121.95 420.49 117.22 402.41 87.55 402.41 82.82 420.49" style="fill:#fff;stroke:#263238;stroke-linecap:round;stroke-linejoin:round"></polygon><polygon points="82.82 420.49 110.67 420.49 105.94 402.41 87.55 402.41 82.82 420.49" style="fill:#bababa;stroke:#263238;stroke-linecap:round;stroke-linejoin:round"></polygon></g><g id="freepik--Lamp--inject-62"><circle cx="253.88" cy="132.67" r="8.77" transform="translate(-19.45 218.38) rotate(-45)" style="fill:#fff;stroke:#263238;stroke-linecap:round;stroke-linejoin:round"></circle><line x1="254.13" y1="61.84" x2="254.13" y2="20.87" style="fill:none;stroke:#263238;stroke-linecap:round;stroke-linejoin:round;stroke-width:2px"></line><line x1="254.13" y1="88.9" x2="254.13" y2="61.84" style="fill:none;stroke:gray;stroke-miterlimit:10;stroke-width:2px"></line><polygon points="240.54 88.9 213.47 135.8 294.23 135.8 267.15 88.9 240.54 88.9" style="fill:#7C3AED;stroke:#263238;stroke-miterlimit:10;stroke-width:0.9727319999999999px"></polygon><polygon points="243.26 88.9 221.71 135.8 285.99 135.8 264.44 88.9 243.26 88.9" style="fill:#263238;stroke:#263238;stroke-linecap:round;stroke-linejoin:round"></polygon></g><g id="freepik--Shade--inject-62"><path d="M179.69,192.47H66.26a10.45,10.45,0,0,0-10.45,10.45V401Z" style="fill:gray;stroke:#263238;stroke-miterlimit:10"></path><path d="M327.8,192.47H441.23a10.45,10.45,0,0,1,10.45,10.45V401.61Z" style="fill:gray;stroke:#263238;stroke-miterlimit:10"></path><line x1="179.69" y1="192.47" x2="55.81" y2="401.03" style="fill:none;stroke:#263238;stroke-linecap:round;stroke-linejoin:round"></line><line x1="327.8" y1="192.47" x2="451.68" y2="401.61" style="fill:none;stroke:#263238;stroke-linecap:round;stroke-linejoin:round"></line><polyline points="71.87 374.31 71.87 212.54 167.31 212.54" style="fill:none;stroke:#263238;stroke-linecap:round;stroke-linejoin:round"></polyline><polyline points="339.91 212.54 435.62 212.54 435.62 375.13" style="fill:none;stroke:#263238;stroke-linecap:round;stroke-linejoin:round"></polyline><polyline points="327.8 192.47 294.23 135.8 213.47 135.8 179.69 192.47" style="fill:#fff;fill-opacity:0.3;stroke:#263238;stroke-miterlimit:10"></polyline></g></svg>